<svg width="50" height="26" viewBox="0 0 50 26" fill="none" xmlns="http://www.w3.org/2000/svg">
<rect x="0.5" y="0.5" width="49" height="25" rx="12.5" stroke="black"/>
<path d="M16.184 17.652H12.008V16.656H16.184V17.652ZM16.184 15.456H12.008V14.4H10.436V18.9H17.756V14.4H16.184V15.456ZM11.564 12.396C10.76 12.396 10.172 11.904 10.172 11.076C10.172 10.248 10.76 9.756 11.564 9.756C12.38 9.756 12.968 10.248 12.968 11.076C12.968 11.904 12.38 12.396 11.564 12.396ZM16.172 7.98V10.416H14.408C14.096 9.24 12.968 8.436 11.564 8.436C9.908 8.436 8.66 9.54 8.66 11.076C8.66 12.612 9.908 13.716 11.564 13.716C12.992 13.716 14.12 12.9 14.42 11.7H16.172V13.92H17.756V7.98H16.172ZM20.1071 9.036V10.296H23.5991C23.5511 10.824 23.4671 11.304 23.3591 11.772L19.5191 11.988L19.7231 13.32L22.8791 13.032C22.2431 14.244 21.1751 15.264 19.4591 16.164L20.3231 17.364C24.2831 15.288 25.1711 12.432 25.1711 9.036H20.1071ZM27.2111 7.98V12.216H25.1471V13.5H27.2111V19.032H28.7951V7.98H27.2111ZM31.1461 8.748V13.716H36.5101V8.748H31.1461ZM34.9621 9.996V12.468H32.7061V9.996H34.9621ZM38.1781 7.98V14.484H39.7741V7.98H38.1781ZM36.0421 14.676C33.7261 14.676 32.2741 15.48 32.2741 16.86C32.2741 18.228 33.7261 19.032 36.0421 19.032C38.3701 19.032 39.8221 18.228 39.8221 16.86C39.8221 15.48 38.3701 14.676 36.0421 14.676ZM36.0421 15.912C37.4821 15.912 38.2501 16.212 38.2501 16.86C38.2501 17.496 37.4821 17.82 36.0421 17.82C34.6141 17.82 33.8461 17.496 33.8461 16.86C33.8461 16.212 34.6141 15.912 36.0421 15.912Z" fill="black"/>
</svg>
