<svg width="50" height="26" viewBox="0 0 50 26" fill="none" xmlns="http://www.w3.org/2000/svg">
<rect x="0.5" y="0.5" width="49" height="25" rx="12.5" stroke="#7F21F7"/>
<path d="M14.444 10.836V12.12H16.172V16.044H17.756V7.98H16.172V10.836H14.444ZM15.176 13.38C13.436 12.792 12.68 11.436 12.68 10.128V9.984H14.828V8.724H8.888V9.984H11.06V10.14C11.06 11.532 10.268 12.984 8.456 13.572L9.248 14.832C10.544 14.4 11.408 13.524 11.9 12.432C12.368 13.428 13.196 14.22 14.408 14.616L15.176 13.38ZM12.056 17.58V15.372H10.472V18.84H18.008V17.58H12.056ZM23.8391 8.832H22.2551V10.44C22.2551 12.588 21.3431 14.724 19.4111 15.552L20.3591 16.86C21.6791 16.236 22.5791 15.048 23.0711 13.572C23.5631 14.928 24.4151 16.02 25.6871 16.596L26.5871 15.312C24.7151 14.508 23.8391 12.492 23.8391 10.44V8.832ZM27.1271 7.968V19.056H28.7111V7.968H27.1271ZM31.5541 12.564C33.6421 12.384 34.9981 11.604 35.5861 10.56C36.1741 11.604 37.5301 12.384 39.6061 12.564L40.1581 11.34C38.0941 11.16 37.0141 10.44 36.7381 9.696H39.6781V8.436H31.5061V9.696H34.4341C34.1581 10.44 33.0781 11.16 31.0261 11.34L31.5541 12.564ZM37.7941 17.04C37.7941 17.592 37.0381 17.832 35.5621 17.832C34.0861 17.832 33.3301 17.592 33.3301 17.04C33.3301 16.476 34.0861 16.236 35.5621 16.236C37.0381 16.236 37.7941 16.476 37.7941 17.04ZM40.5781 14.256V12.996H30.5941V14.256H34.7941V15.06C32.8741 15.216 31.7341 15.9 31.7341 17.04C31.7341 18.312 33.1741 19.044 35.5621 19.044C37.9501 19.044 39.4021 18.312 39.4021 17.04C39.4021 15.912 38.2741 15.228 36.3781 15.072V14.256H40.5781Z" fill="#7F21F7"/>
</svg>
