<svg width="61" height="26" viewBox="0 0 61 26" fill="none" xmlns="http://www.w3.org/2000/svg">
<rect width="61" height="26" rx="13" fill="#BEBEBE"/>
<path d="M14.444 10.836V12.12H16.172V16.044H17.756V7.98H16.172V10.836H14.444ZM15.176 13.38C13.436 12.792 12.68 11.436 12.68 10.128V9.984H14.828V8.724H8.888V9.984H11.06V10.14C11.06 11.532 10.268 12.984 8.456 13.572L9.248 14.832C10.544 14.4 11.408 13.524 11.9 12.432C12.368 13.428 13.196 14.22 14.408 14.616L15.176 13.38ZM12.056 17.58V15.372H10.472V18.84H18.008V17.58H12.056ZM23.8391 8.832H22.2551V10.44C22.2551 12.588 21.3431 14.724 19.4111 15.552L20.3591 16.86C21.6791 16.236 22.5791 15.048 23.0711 13.572C23.5631 14.928 24.4151 16.02 25.6871 16.596L26.5871 15.312C24.7151 14.508 23.8391 12.492 23.8391 10.44V8.832ZM27.1271 7.968V19.056H28.7111V7.968H27.1271ZM31.5541 12.576C33.6421 12.372 34.9981 11.604 35.5861 10.548C36.1621 11.604 37.5301 12.372 39.6061 12.576L40.1581 11.328C38.0941 11.16 37.0141 10.44 36.7381 9.696H39.6781V8.436H31.5061V9.696H34.4341C34.1581 10.44 33.0781 11.16 31.0141 11.328L31.5541 12.576ZM35.5621 17.856C34.0741 17.856 33.3301 17.628 33.3301 17.088C33.3301 16.56 34.0741 16.32 35.5621 16.32C37.0501 16.32 37.7941 16.56 37.7941 17.088C37.7941 17.628 37.0501 17.856 35.5621 17.856ZM35.5621 15.132C33.1621 15.132 31.7341 15.84 31.7341 17.088C31.7341 18.336 33.1621 19.044 35.5621 19.044C37.9621 19.044 39.4021 18.336 39.4021 17.088C39.4021 15.84 37.9621 15.132 35.5621 15.132ZM36.3661 13.272V11.94H34.7821V13.272H30.5941V14.532H40.5781V13.272H36.3661ZM45.7252 14.844H47.6572V16.524H45.7252V14.844ZM49.2172 16.524V14.844H50.7652V13.572H44.3572V12.36H50.5132V8.688H42.7732V9.948H48.9532V11.124H42.7852V14.844H44.1652V16.524H41.6212V17.82H51.6412V16.524H49.2172Z" fill="white"/>
</svg>
