<svg width="25" height="24" viewBox="0 0 25 24" fill="none" xmlns="http://www.w3.org/2000/svg">
<path d="M12.6718 13C11.584 13 10.5206 12.6774 9.61618 12.0731C8.71171 11.4687 8.00683 10.6098 7.59054 9.60477C7.17426 8.59977 7.06534 7.49393 7.27756 6.42703C7.48978 5.36014 8.01362 4.38012 8.78281 3.61093C9.55199 2.84174 10.532 2.3179 11.5988 2.10568C12.6657 1.89346 13.7716 2.00239 14.7766 2.41867C15.7816 2.83495 16.6406 3.5399 17.245 4.44437C17.8493 5.34884 18.1718 6.41223 18.1718 7.50003C18.1703 8.95823 17.5903 10.3563 16.5592 11.3874C15.5281 12.4185 14.13 12.9984 12.6718 13ZM12.6718 3.00003C11.7818 3.00003 10.9117 3.26393 10.1717 3.75839C9.4317 4.25286 8.85497 4.95572 8.51437 5.77798C8.17378 6.60025 8.08464 7.50505 8.25827 8.37796C8.4319 9.25087 8.8605 10.0527 9.48984 10.682C10.1192 11.3114 10.921 11.7399 11.7939 11.9135C12.6668 12.0872 13.5716 11.9981 14.3939 11.6575C15.2162 11.3169 15.919 10.7401 16.4134 10.0001C16.9079 9.26007 17.1718 8.39005 17.1718 7.50003C17.1703 6.30704 16.6956 5.16336 15.852 4.31979C15.0084 3.47622 13.8648 3.00162 12.6718 3.00003Z" fill="black"/>
<path d="M19.1396 21.5H6.20361C5.25761 21.5 4.58663 20.752 4.45263 19.549C4.37851 18.1483 4.70761 16.7558 5.401 15.5365C6.09438 14.3172 7.12294 13.3224 8.36462 12.67C8.47893 12.6026 8.61531 12.5834 8.74377 12.6166C8.87223 12.6498 8.98231 12.7327 9.04968 12.847C9.11704 12.9613 9.13622 13.0977 9.10302 13.2261C9.06983 13.3546 8.98698 13.4646 8.87268 13.532C7.10568 14.572 5.14865 16.743 5.44665 19.438C5.49065 19.838 5.64661 20.5 6.20361 20.5H19.1396C19.2626 20.5 19.6396 20.5 19.8126 19.881C20.4836 17.497 18.7216 14.933 16.6346 13.631C16.5268 13.5587 16.4513 13.4474 16.4241 13.3205C16.3968 13.1936 16.4199 13.061 16.4886 12.9509C16.5573 12.8408 16.6662 12.7617 16.7921 12.7304C16.9181 12.6991 17.0513 12.7179 17.1636 12.783C19.4926 14.235 21.6166 17.161 20.7756 20.151C20.6992 20.5295 20.4949 20.8701 20.197 21.1158C19.8991 21.3614 19.5257 21.4971 19.1396 21.5Z" fill="black"/>
</svg>
